# xmcd CD database file
#
# Track frame offsets:
#	182
#	11512
#	28695
#	41917
#	58412
#	68352
#	81077
#	100715
#	115490
#	131527
#	145137
#
# Disc length: 2181 seconds
#
# Revision: 0
# Processed by: cddbd v1.5.2PL0 Copyright (c) Steve Scherf et al.
# Submitted via: CDex 1.70beta2
#
DISCID=9308830b
DTITLE=Mark Perry - Still Around
DYEAR=1993
DGENRE=Country
TTITLE0=My Year
TTITLE1=Still Around
TTITLE2=On Your Way Back
TTITLE3=Sam
TTITLE4=I'm With You
TTITLE5=Growin' up
TTITLE6=If You Really Want To
TTITLE7=Standin Here Today
TTITLE8=Another Chance
TTITLE9=Leap of Faith
TTITLE10=Late Night Radio
EXTD=YEAR: 1993
EXTT0=
EXTT1=
EXTT2=
EXTT3=
EXTT4=
EXTT5=
EXTT6=
EXTT7=
EXTT8=
EXTT9=
EXTT10=
PLAYORDER=
